# xmcd
#
# Track frame offsets: 
#        150
#        25960
#        41802
#        65337
#        89817
#        111547
#        130920
#        147330
#        165952
#        188020
#        204467
#        225147
#
# Disc length: 3343 seconds
#
# Revision: 1
# Processed by: cddbd v1.5.2PL0 Copyright (c) Steve Scherf et al.
# Submitted via: ExactAudioCopy v0.95b4
#
DISCID=a40d0d0c
DTITLE=Glenn Hughes - The Way It Is
DYEAR=1999
DGENRE=Hard Rock
TTITLE0=The Way It Is
TTITLE1=You Kill Me
TTITLE2=Neverafter
TTITLE3=Rain On Me
TTITLE4=Curse
TTITLE5=Freedom
TTITLE6=The Truth Will Set Me Free
TTITLE7=Stoned In The Temple
TTITLE8=Too Far Go
TTITLE9=Second Son
TTITLE10=Take You Down
TTITLE11=Don't Look Away
EXTD=
EXTT0=
EXTT1=
EXTT2=
EXTT3=
EXTT4=
EXTT5=
EXTT6=
EXTT7=
EXTT8=
EXTT9=
EXTT10=
EXTT11=
PLAYORDER=
